<svg width="81" height="47" viewBox="0 0 81 47" fill="none" xmlns="http://www.w3.org/2000/svg">
<path d="M21.0782 19.8391C21.4007 20.1861 21.7329 20.4921 22.0749 20.757C22.4267 21.0127 22.7785 21.2365 23.1303 21.4283C23.4821 21.6201 23.829 21.7799 24.171 21.9078C24.513 22.0265 24.6395 22.0755 25.1531 22.1955C25.6667 22.3155 28.4121 22.3736 28.4511 22.3736C28.4902 22.3736 28.4435 25.4857 28.4435 25.4857C28.4044 25.4949 28.0749 25.5246 27.7622 25.5794C27.4593 25.6434 27.0489 25.6754 26.5309 25.6754C25.5733 25.6754 24.6987 25.584 23.9072 25.4013C23.1156 25.2187 22.3925 24.9766 21.7378 24.6752C21.0831 24.3738 20.4821 24.0268 19.9349 23.634C19.3974 23.2321 18.8893 22.812 18.4104 22.3736C17.9414 21.9352 17.4967 21.4968 17.0765 21.0584C16.6564 20.6108 16.241 20.1907 15.8306 19.798C15.4202 19.4052 15 19.049 14.57 18.7293C14.1498 18.4097 13.7003 18.1585 13.2215 17.9758C12.684 17.7658 12.127 17.5968 11.5505 17.4689C10.9837 17.3411 10.4218 17.2452 9.86482 17.1812C9.30782 17.1081 8.76547 17.0579 8.23779 17.0305C7.71987 17.0031 7.24593 16.9894 6.81596 16.9894C6.18078 16.9894 5.67752 17.0031 5.30619 17.0305C5.09121 17.0396 4.90065 17.0533 4.73453 17.0716V25.5246H0.498371V25.4149V1.63816L4.73453 0V13.811C6.17101 13.811 7.42671 13.7562 8.50163 13.6466C9.57655 13.537 10.5098 13.3908 11.3013 13.2082C12.0928 13.0255 12.7622 12.8108 13.3094 12.5642C13.8664 12.3176 14.3355 12.0619 14.7166 11.797C15.1075 11.523 15.4397 11.2445 15.7134 10.9613C15.987 10.6782 16.2362 10.4042 16.4609 10.1393C17.3697 9.09809 18.298 8.26695 19.2459 7.64587C20.1938 7.01566 21.1124 6.53159 22.0016 6.19365C22.8909 5.85571 23.7215 5.63194 24.4935 5.52234C25.2752 5.41274 25.9446 5.35793 26.5016 5.35793C26.9707 5.35793 27.342 5.3762 27.6156 5.41274C27.899 5.44927 28.0554 5.4721 28.0847 5.48124L27.1319 8.52268C27.0635 8.50442 26.9853 8.49072 26.8974 8.48158C26.741 8.45418 26.5212 8.44048 26.2378 8.44048C25.9055 8.44048 25.4951 8.48158 25.0065 8.56379C24.5277 8.63685 23.9951 8.80125 23.4088 9.05699C22.8225 9.30359 22.202 9.6598 21.5472 10.1256C20.8925 10.5823 20.228 11.1942 19.5537 11.9614C19.2997 12.2446 19.0065 12.5505 18.6743 12.8794C18.3518 13.199 18 13.5096 17.6189 13.811C17.2378 14.1032 16.8274 14.3681 16.3876 14.6056C15.9577 14.843 15.5081 15.0166 15.0391 15.1262C15.3518 15.2175 15.7036 15.3819 16.0945 15.6194C16.4853 15.8569 16.886 16.1309 17.2964 16.4414C17.7068 16.7428 18.1124 17.0716 18.513 17.4278C18.9235 17.7749 19.2997 18.1083 19.6417 18.4279C19.9837 18.7385 20.2818 19.0216 20.5358 19.2774C20.7899 19.5331 20.9707 19.7203 21.0782 19.8391Z" fill="#4868D0"/>
<path d="M60.6547 5.44014C60.6547 5.44014 60.5949 25.0767 60.6547 25.4916C60.7145 25.9066 60.6395 26.2574 61.3149 26.6782C61.9904 27.0991 63.4913 26.3275 63.4913 26.3275L57.899 29.8884C57.899 29.8884 57.2804 29.2157 57.0371 28.3617C56.7939 27.5077 56.6939 26.2698 56.6531 25.5148C56.6123 24.7599 56.6531 23.5792 56.6531 23.5792C56.6531 22.6111 56.57 21.6521 56.4039 20.7022C56.2476 19.7523 56.0033 18.8207 55.671 17.9073C55.6026 17.7064 55.4902 17.4141 55.3339 17.0305C55.1775 16.6378 54.9674 16.1948 54.7036 15.7016C54.4397 15.1993 54.1124 14.6649 53.7215 14.0987C53.3306 13.5233 52.8567 12.957 52.2997 12.3998C51.7524 11.8336 51.1173 11.2901 50.3941 10.7695C49.671 10.2489 48.8404 9.79224 47.9023 9.3995C46.9642 8.99762 45.9137 8.67795 44.7508 8.44048C43.5977 8.20301 42.3127 8.08428 40.8958 8.08428C39.6645 8.08428 38.5651 8.18475 37.5977 8.38568C36.6401 8.57749 35.7997 8.84692 35.0765 9.19399C34.3534 9.53193 33.7378 9.9338 33.2296 10.3996C32.7313 10.8654 32.3257 11.3723 32.013 11.9203C31.7003 12.4683 31.4707 13.0438 31.3241 13.6466C31.1775 14.2494 31.0945 14.8567 31.0749 15.4687C31.0749 15.5052 31.0749 15.5372 31.0749 15.5646C31.0749 16.0943 31.1482 16.6423 31.2948 17.2086C31.4414 17.7749 31.6759 18.332 31.9984 18.88C32.3208 19.4281 32.7264 19.9441 33.215 20.4282C33.7036 20.9122 34.2801 21.3369 34.9446 21.7023C35.6091 22.0585 36.3616 22.3416 37.202 22.5517C38.0423 22.7618 38.9707 22.8668 39.987 22.8668C41.1303 22.8668 42.259 22.7161 43.373 22.4147C44.4967 22.1133 45.5717 21.6521 46.5977 21.031C47.6336 20.4008 48.6059 19.6016 49.5147 18.6334C50.4235 17.6653 51.2345 16.519 51.9479 15.1947L54.9821 16.6195C53.3111 19.7249 51.2052 22.0722 48.6645 23.6614C46.1238 25.2415 43.2166 26.0316 39.943 26.0316C39.6694 26.0316 39.3225 26.0316 38.9023 26.0316C38.4821 26.0316 38.0081 26.0042 37.4805 25.9494C36.9528 25.9037 36.3811 25.8169 35.7655 25.689C35.1498 25.5612 34.5098 25.3694 33.8453 25.1136C33.1808 24.8579 32.5016 24.5291 31.8078 24.1272C31.1238 23.7162 30.4495 23.2047 29.785 22.5928C28.7199 21.6155 27.9186 20.5286 27.3811 19.3322C26.8534 18.1357 26.5896 16.8935 26.5896 15.6057C26.5896 15.5418 26.5896 15.4733 26.5896 15.4002C26.6091 14.5599 26.7508 13.7196 27.0147 12.8794C27.2883 12.0299 27.684 11.2171 28.202 10.4407C28.7296 9.66437 29.3844 8.94282 30.1661 8.27608C30.9479 7.6002 31.8664 7.01566 32.9218 6.52245C33.9772 6.02925 35.1645 5.64107 36.4837 5.35793C37.8127 5.0748 39.2834 4.93323 40.8958 4.93323C42.3225 4.93323 43.6417 5.03826 44.8534 5.24833C46.0749 5.44927 47.1987 5.72784 48.2248 6.08405C49.2508 6.44025 50.1889 6.86039 51.0391 7.34447C51.8893 7.82854 52.6612 8.35371 53.355 8.91999C54.0489 9.47713 54.6645 10.0617 55.202 10.6736C55.7492 11.2764 56.2329 11.8838 56.6531 12.4957V5.44014H60.6547Z" fill="#4868D0"/>
<path d="M63.5423 5.44014H79.5928L79.6368 30.3294C79.6368 30.3294 79.2457 29.3465 78.1429 28.1295C77.0402 26.9126 75.855 26.3275 75.855 26.3275V8.81039H67.4414V25.7123V24.7128C67.4414 24.7128 66.2583 24.7427 65.5118 24.8532C64.7652 24.9638 63.5423 25.2277 63.5423 25.2277V5.44014Z" fill="#4868D0"/>
<path d="M15.171 46.3424C13.8029 46.3424 12.4788 46.2556 11.1987 46.0821C9.91857 45.9086 8.71661 45.6482 7.59283 45.3012C6.46906 44.945 5.443 44.4974 4.51466 43.9586C3.58632 43.4197 2.78502 42.7803 2.11075 42.0405C1.44625 41.2916 0.928339 40.4376 0.557003 39.4786C0.185668 38.5196 0 37.451 0 36.2727C0 35.1493 0.185668 34.1218 0.557003 33.1902C0.928339 32.2586 1.44625 31.4183 2.11075 30.6693C2.78502 29.9204 3.58632 29.2674 4.51466 28.7102C5.443 28.1439 6.46906 27.6736 7.59283 27.2991C8.71661 26.9246 9.91857 26.6461 11.1987 26.4634C12.4788 26.2716 13.8029 26.1757 15.171 26.1757L15.1564 29.5459C13.329 29.5551 11.7117 29.756 10.3046 30.1487C8.90717 30.5323 7.73453 31.0393 6.78665 31.6695C5.83876 32.2905 5.11563 33.0029 4.61726 33.8067C4.12866 34.6013 3.87459 35.4188 3.85505 36.259C3.85505 36.2956 3.85505 36.3321 3.85505 36.3686C3.85505 37.1724 4.0798 37.967 4.52932 38.7525C4.97883 39.538 5.67264 40.2458 6.61075 40.876C7.55863 41.5062 8.74104 42.0177 10.158 42.4104C11.5847 42.8032 13.2508 43.0041 15.1564 43.0132L15.171 46.3424Z" fill="#4868D0"/>
<path d="M28.4511 38.5333C28.4511 40.1864 28.3339 41.5565 28.0994 42.6433C27.8648 43.7302 27.5179 44.5979 27.0586 45.2464C26.6091 45.8857 26.0423 46.3378 25.3583 46.6027C24.684 46.8676 23.9023 47 23.013 47C22.2117 47 21.5033 46.8904 20.8876 46.6712C20.2818 46.452 19.759 46.1643 19.3192 45.8081C18.8795 45.4519 18.513 45.0546 18.2199 44.6162C17.9267 44.1778 17.6922 43.7393 17.5163 43.3009C17.3404 42.8625 17.2182 42.447 17.1498 42.0542C17.0814 41.6615 17.0472 41.3372 17.0472 41.0815H20.5358C20.5358 42.1045 20.7508 42.8808 21.1808 43.4105C21.6205 43.9312 22.1824 44.1915 22.8664 44.1915C23.2573 44.1915 23.5749 44.0773 23.8192 43.849C24.0635 43.6115 24.2541 43.2735 24.3909 42.8351C24.5375 42.3967 24.6352 41.8716 24.684 41.2596C24.7329 40.6385 24.7573 39.9444 24.7573 39.1772V39.1498C24.4251 39.1954 24.1075 39.232 23.8046 39.2594C23.5114 39.2868 23.228 39.3005 22.9544 39.3005C21.8013 39.3005 20.8388 39.1132 20.0668 38.7388C19.2948 38.3643 18.6743 37.8711 18.2052 37.2592C17.7362 36.6381 17.3893 35.9394 17.1645 35.163C16.9495 34.3775 16.8176 33.5738 16.7687 32.7518C16.7492 32.4412 16.7394 32.1261 16.7394 31.8065C16.7394 30.1259 16.9984 28.2581 17.5163 26.2031H21.2834C20.8046 28.1302 20.5505 29.8473 20.5212 31.3544C20.5212 31.4183 20.5212 31.4868 20.5212 31.5599C20.5212 32.1261 20.5603 32.7061 20.6384 33.2998C20.7166 33.8843 20.873 34.4186 21.1075 34.9027C21.3518 35.3777 21.684 35.7658 22.1042 36.0672C22.5342 36.3595 23.0814 36.5056 23.7459 36.5056C24.0293 36.5056 24.3664 36.4691 24.7573 36.396V26.2217C24.7573 26.2217 24.7661 25.8926 24.541 25.6754C24.3158 25.4581 23.9072 25.4013 23.9072 25.4013L28.4435 25.4857C28.4435 25.4857 28.4435 25.9066 28.4511 26.2178C28.4588 26.5289 28.4511 38.5333 28.4511 38.5333Z" fill="#4868D0"/>
<path d="M55.5391 26.1894V47H51.3176V29.7377C50.2622 30.0209 49.0993 30.3588 47.829 30.7515C46.5684 31.1352 45.1954 31.6421 43.7101 32.2723C42.9381 32.6011 42.1515 32.9664 41.3502 33.3683C40.5489 33.761 39.772 34.1903 39.0195 34.6561C38.2671 35.1219 37.5586 35.6197 36.8941 36.1494C36.2296 36.67 35.6482 37.2272 35.1498 37.8209C34.6612 38.4054 34.2704 39.0219 33.9772 39.6704C33.6938 40.3189 33.5521 40.9947 33.5521 41.698C33.5521 42.1364 33.6254 42.4835 33.772 42.7392C33.9283 42.9858 34.1091 43.1731 34.3143 43.3009C34.5195 43.4197 34.7345 43.4973 34.9593 43.5339C35.184 43.5613 35.3697 43.575 35.5163 43.575V46.8219C35.3502 46.8219 35.0863 46.7991 34.7248 46.7534C34.3632 46.7169 33.9625 46.6392 33.5228 46.5205C33.0831 46.4018 32.6287 46.2282 32.1596 45.9999C31.7003 45.7716 31.2752 45.4701 30.8844 45.0957C30.5033 44.7121 30.1906 44.2463 29.9463 43.6982C29.702 43.1411 29.5798 42.4744 29.5798 41.698C29.5798 40.6294 29.7899 39.6156 30.2101 38.6566C30.6303 37.6884 31.202 36.7796 31.9251 35.9302C32.6482 35.0808 33.4984 34.2862 34.4756 33.5464C35.4625 32.7974 36.5179 32.1033 37.6417 31.464C38.7752 30.8246 39.9528 30.2401 41.1743 29.7103C42.3958 29.1715 43.6075 28.6828 44.8094 28.2444C46.0114 27.806 47.1743 27.4178 48.298 27.0799C49.4316 26.7328 50.4723 26.436 51.4202 26.1894H55.5391Z" fill="#4868D0"/>
<path d="M79.5928 38.0812C79.5831 38.2638 79.5782 38.4511 79.5782 38.6429C79.5782 38.9991 79.5977 39.4101 79.6368 39.8759C79.6857 40.3417 79.7736 40.8258 79.9007 41.3281C80.0277 41.8213 80.184 42.2506 80.3697 42.6159C80.5554 42.9721 80.6993 43.1285 81 43.3283L79.1091 46.6301C78.728 46.4657 78.386 46.2556 78.0831 45.9999C77.7899 45.735 77.5261 45.4382 77.2915 45.1094C77.057 44.7806 76.8518 44.4289 76.6759 44.0545C76.5098 43.68 76.3632 43.2964 76.2362 42.9036C75.6792 43.4608 75.0586 43.9723 74.3746 44.4381C73.6906 44.9039 72.9479 45.3103 72.1466 45.6574C71.3551 45.9953 70.5098 46.2602 69.6107 46.452C68.7215 46.6529 67.7883 46.7671 66.8111 46.7945C66.684 46.7945 66.5619 46.7945 66.4446 46.7945C65.6238 46.7945 64.8127 46.7077 64.0114 46.5342C63.2101 46.3698 62.4479 46.1232 61.7248 45.7944C61.0114 45.4564 60.3665 45.0637 59.7899 44.6162C59.2231 44.1595 58.7394 43.6708 58.3388 43.1502C57.9381 42.6296 57.6303 42.0908 57.4153 41.5336C57.2101 40.9673 57.1075 40.4148 57.1075 39.8759C57.1075 38.9808 57.2638 38.2227 57.5766 37.6017C57.899 36.9714 58.3094 36.4463 58.8078 36.0261C59.316 35.5969 59.8827 35.2544 60.5081 34.9986C61.1433 34.7429 61.7736 34.5465 62.399 34.4095C63.0342 34.2725 63.6303 34.1766 64.1873 34.1218C64.7541 34.067 65.2231 34.0259 65.5945 33.9985L65.7997 33.9848C66.3958 33.9391 67.0798 33.9026 67.8518 33.8752C68.6335 33.8387 69.4544 33.8158 70.3143 33.8067C71.1743 33.7884 72.0489 33.7793 72.9381 33.7793C73.8371 33.7793 74.702 33.7839 75.5326 33.793C75.5326 33.2724 75.342 32.7335 74.9609 32.1764C74.5798 31.6101 74.057 31.0941 73.3925 30.6282C72.728 30.1533 71.9365 29.7651 71.0179 29.4637C70.1091 29.1532 69.127 28.9979 68.0717 28.9979C67.4853 28.9979 66.8795 29.0527 66.2541 29.1623C65.6384 29.2719 65.0082 29.45 64.3632 29.6966C63.728 29.9432 63.1911 30.2039 62.4407 30.5362C62.1998 30.6428 61.9752 30.7316 61.7651 30.8081C60.4918 31.272 58.7928 30.9071 57.899 29.8884C58.6026 29.1486 59.3746 28.5138 60.215 27.9841C61.0651 27.4544 62.6021 26.6654 63.4913 26.3275C64.2587 26.0701 64.9155 25.992 65.5118 25.8829C66.1811 25.7605 66.8208 25.7435 67.4414 25.7123C67.6543 25.7015 67.8644 25.6962 68.0717 25.6962C69.5179 25.6962 70.8078 25.8377 71.9414 26.1209C73.0749 26.404 74.0668 26.7785 74.9169 27.2443C75.7769 27.701 76.5 28.2216 77.0863 28.8061C77.6824 29.3907 78.1661 29.9843 78.5375 30.5871C78.9088 31.19 79.1775 31.7745 79.3437 32.3408C79.5098 32.907 79.5928 33.4048 79.5928 33.8341C79.5928 33.8432 79.6124 33.8384 79.5928 33.8384C79.5831 33.8384 79.5928 33.8524 79.5928 33.8615V38.0812ZM61.9739 41.7528C62.6873 42.3556 63.4739 42.7986 64.3339 43.0817C65.1938 43.3649 66.0831 43.5064 67.0016 43.5064C67.9984 43.5064 68.9853 43.3512 69.9625 43.0406C70.9397 42.7301 71.8339 42.2917 72.645 41.7254C73.4658 41.15 74.1645 40.465 74.741 39.6704C75.3176 38.8666 75.6987 37.9716 75.8844 36.9851C75.0538 36.976 74.184 36.9714 73.2753 36.9714C72.3762 36.9714 71.4919 36.9806 70.6222 36.9988C69.7524 37.008 68.9267 37.0262 68.145 37.0536C67.3632 37.081 66.6792 37.1176 66.0928 37.1632L65.873 37.1769C64.886 37.2592 64.0749 37.3642 63.4397 37.4921C62.8046 37.6199 62.3013 37.7889 61.93 37.999C61.5586 38.209 61.2997 38.4693 61.1531 38.7799C61.0065 39.0813 60.9332 39.4466 60.9332 39.8759C60.9332 40.223 61.0261 40.5518 61.2117 40.8623C61.4072 41.1637 61.6612 41.4605 61.9739 41.7528Z" fill="#4868D0"/>
</svg>
